<svg width="600" height="500" viewBox="0 0 600 500" fill="none" xmlns="http://www.w3.org/2000/svg">
  <!-- Background elements -->
  <circle cx="300" cy="250" r="200" fill="#ecf0f1" opacity="0.5"/>
  <circle cx="300" cy="250" r="150" fill="#2ecc71" opacity="0.1"/>
  
  <!-- Recycling bin -->
  <rect x="200" y="270" width="200" height="180" rx="10" fill="#27ae60"/>
  <rect x="190" y="270" width="220" height="20" rx="5" fill="#2c3e50"/>
  <rect x="220" y="300" width="160" height="120" fill="#2ecc71"/>
  
  <!-- Recycling symbol -->
  <g transform="translate(300, 360) scale(1.8)">
    <path d="M0,-25 L8,-10 L-8,-10 Z" fill="#fff"/>
    <path d="M21.7,12.5 L5,12.5 L13.3,-2.5 Z" fill="#fff"/>
    <path d="M-21.7,12.5 L-13.3,-2.5 L-5,12.5 Z" fill="#fff"/>
    
    <path d="M0,-20 L0,-10 M-5,-15 L0,-10 L5,-15" stroke="#fff" stroke-width="2" stroke-linecap="round"/>
    <path d="M17.3,10 L8.7,0 M8.7,10 L8.7,0 L15.6,3.5" stroke="#fff" stroke-width="2" stroke-linecap="round"/>
    <path d="M-17.3,10 L-8.7,0 M-15.6,3.5 L-8.7,0 L-8.7,10" stroke="#fff" stroke-width="2" stroke-linecap="round"/>
  </g>
  
  <!-- Digital elements - data visualization -->
  <rect x="100" y="150" width="120" height="80" rx="10" fill="#fff" stroke="#2c3e50" stroke-width="2"/>
  <line x1="120" y1="170" x2="200" y2="170" stroke="#2ecc71" stroke-width="4"/>
  <line x1="120" y1="190" x2="180" y2="190" stroke="#27ae60" stroke-width="4"/>
  <line x1="120" y1="210" x2="160" y2="210" stroke="#2c3e50" stroke-width="4"/>
  
  <!-- Digital elements - phone -->
  <rect x="400" y="130" width="80" height="140" rx="10" fill="#2c3e50"/>
  <rect x="410" y="150" width="60" height="100" rx="2" fill="#fff"/>
  <circle cx="440" cy="140" r="3" fill="#fff"/>
  <rect x="430" y="260" width="20" height="3" rx="1" fill="#fff"/>
  
  <!-- Graph elements in phone -->
  <line x1="420" y1="210" x2="420" y2="170" stroke="#ecf0f1" stroke-width="1"/>
  <line x1="430" y1="210" x2="430" y2="170" stroke="#ecf0f1" stroke-width="1"/>
  <line x1="440" y1="210" x2="440" y2="170" stroke="#ecf0f1" stroke-width="1"/>
  <line x1="450" y1="210" x2="450" y2="170" stroke="#ecf0f1" stroke-width="1"/>
  <line x1="460" y1="210" x2="460" y2="170" stroke="#ecf0f1" stroke-width="1"/>
  
  <rect x="418" y="190" width="4" height="20" fill="#2ecc71"/>
  <rect x="428" y="180" width="4" height="30" fill="#2ecc71"/>
  <rect x="438" y="200" width="4" height="10" fill="#2ecc71"/>
  <rect x="448" y="175" width="4" height="35" fill="#2ecc71"/>
  <rect x="458" y="185" width="4" height="25" fill="#2ecc71"/>
  
  <!-- AI Vision elements -->
  <rect x="300" y="150" width="60" height="60" rx="5" fill="#2c3e50" fill-opacity="0.7"/>
  <path d="M315,165 L345,165 L345,195 L315,195 Z" stroke="#2ecc71" stroke-width="2" stroke-dasharray="4 2"/>
  <path d="M310,160 L350,160 L350,200 L310,200 Z" stroke="#fff" stroke-width="1" stroke-dasharray="2 2"/>
  <circle cx="330" cy="180" r="12" stroke="#2ecc71" stroke-width="2" fill="none"/>
  <line x1="345" y1="195" x2="365" y2="215" stroke="#2ecc71" stroke-width="2"/>
  
  <!-- Connection lines -->
  <path d="M220,180 L290,180" stroke="#2c3e50" stroke-width="2" stroke-dasharray="6 4"/>
  <path d="M360,180 L400,180" stroke="#2c3e50" stroke-width="2" stroke-dasharray="6 4"/>
  <path d="M320,210 L300,270" stroke="#2c3e50" stroke-width="2" stroke-dasharray="6 4"/>
</svg> 